<mxfile host="app.diagrams.net" modified="2023-12-06T20:49:53.384Z" agent="Mozilla/5.0 (Windows NT 10.0; Win64; x64) AppleWebKit/537.36 (KHTML, like Gecko) Chrome/120.0.0.0 Safari/537.36" etag="jYMl1rOABn2Ge-eNSPk3" version="22.1.7" type="device">
  <diagram name="Pagina-1" id="CQxdbwiRA1noSHFLL-Lw">
    <mxGraphModel dx="1050" dy="574" grid="1" gridSize="10" guides="1" tooltips="1" connect="1" arrows="1" fold="1" page="1" pageScale="1" pageWidth="827" pageHeight="1169" math="0" shadow="0">
      <root>
        <mxCell id="0" />
        <mxCell id="1" parent="0" />
        <mxCell id="8-0DUaSqQJlFpMWTqGrt-100" value="" style="group;fontSize=13;" parent="1" vertex="1" connectable="0">
          <mxGeometry x="490" y="20" width="270" height="160" as="geometry" />
        </mxCell>
        <mxCell id="klr1kLKZfkLogq7ZMNAk-67" value="User" style="shape=table;startSize=30;container=1;collapsible=1;childLayout=tableLayout;fixedRows=1;rowLines=0;fontStyle=1;align=center;resizeLast=1;html=1;fontSize=13;" parent="8-0DUaSqQJlFpMWTqGrt-100" vertex="1">
          <mxGeometry width="237.90983606557378" height="160" as="geometry" />
        </mxCell>
        <mxCell id="klr1kLKZfkLogq7ZMNAk-68" value="" style="shape=tableRow;horizontal=0;startSize=0;swimlaneHead=0;swimlaneBody=0;fillColor=none;collapsible=0;dropTarget=0;points=[[0,0.5],[1,0.5]];portConstraint=eastwest;top=0;left=0;right=0;bottom=1;fontSize=13;" parent="klr1kLKZfkLogq7ZMNAk-67" vertex="1">
          <mxGeometry y="30" width="237.90983606557378" height="30" as="geometry" />
        </mxCell>
        <mxCell id="klr1kLKZfkLogq7ZMNAk-69" value="PK" style="shape=partialRectangle;connectable=0;fillColor=none;top=0;left=0;bottom=0;right=0;fontStyle=1;overflow=hidden;whiteSpace=wrap;html=1;fontSize=13;" parent="klr1kLKZfkLogq7ZMNAk-68" vertex="1">
          <mxGeometry width="30" height="30" as="geometry">
            <mxRectangle width="30" height="30" as="alternateBounds" />
          </mxGeometry>
        </mxCell>
        <mxCell id="klr1kLKZfkLogq7ZMNAk-70" value="Username" style="shape=partialRectangle;connectable=0;fillColor=none;top=0;left=0;bottom=0;right=0;align=left;spacingLeft=6;fontStyle=5;overflow=hidden;whiteSpace=wrap;html=1;fontSize=13;" parent="klr1kLKZfkLogq7ZMNAk-68" vertex="1">
          <mxGeometry x="30" width="207.90983606557378" height="30" as="geometry">
            <mxRectangle width="207.90983606557378" height="30" as="alternateBounds" />
          </mxGeometry>
        </mxCell>
        <mxCell id="klr1kLKZfkLogq7ZMNAk-71" value="" style="shape=tableRow;horizontal=0;startSize=0;swimlaneHead=0;swimlaneBody=0;fillColor=none;collapsible=0;dropTarget=0;points=[[0,0.5],[1,0.5]];portConstraint=eastwest;top=0;left=0;right=0;bottom=0;fontSize=13;" parent="klr1kLKZfkLogq7ZMNAk-67" vertex="1">
          <mxGeometry y="60" width="237.90983606557378" height="100" as="geometry" />
        </mxCell>
        <mxCell id="klr1kLKZfkLogq7ZMNAk-72" value="" style="shape=partialRectangle;connectable=0;fillColor=none;top=0;left=0;bottom=0;right=0;editable=1;overflow=hidden;whiteSpace=wrap;html=1;fontSize=13;" parent="klr1kLKZfkLogq7ZMNAk-71" vertex="1">
          <mxGeometry width="30" height="100" as="geometry">
            <mxRectangle width="30" height="100" as="alternateBounds" />
          </mxGeometry>
        </mxCell>
        <mxCell id="klr1kLKZfkLogq7ZMNAk-73" value="" style="shape=partialRectangle;connectable=0;fillColor=none;top=0;left=0;bottom=0;right=0;align=left;spacingLeft=6;overflow=hidden;whiteSpace=wrap;html=1;fontSize=13;" parent="klr1kLKZfkLogq7ZMNAk-71" vertex="1">
          <mxGeometry x="30" width="207.90983606557378" height="100" as="geometry">
            <mxRectangle width="207.90983606557378" height="100" as="alternateBounds" />
          </mxGeometry>
        </mxCell>
        <mxCell id="8-0DUaSqQJlFpMWTqGrt-96" value="" style="endArrow=none;html=1;rounded=0;fontSize=13;" parent="8-0DUaSqQJlFpMWTqGrt-100" edge="1">
          <mxGeometry width="50" height="50" relative="1" as="geometry">
            <mxPoint x="126.14754098360656" y="160" as="sourcePoint" />
            <mxPoint x="127.25409836065573" y="30" as="targetPoint" />
          </mxGeometry>
        </mxCell>
        <mxCell id="8-0DUaSqQJlFpMWTqGrt-97" value="VARCHAR(30)&lt;br style=&quot;font-size: 13px;&quot;&gt;VARCHAR(30)&lt;br style=&quot;font-size: 13px;&quot;&gt;VARCHAR(30)&lt;br style=&quot;font-size: 13px;&quot;&gt;VARCHAR(50)&lt;br style=&quot;font-size: 13px;&quot;&gt;ENUM" style="text;html=1;align=left;verticalAlign=middle;resizable=0;points=[];autosize=1;strokeColor=none;fillColor=none;fontSize=13;" parent="8-0DUaSqQJlFpMWTqGrt-100" vertex="1">
          <mxGeometry x="137.21311475409837" y="60" width="110" height="90" as="geometry" />
        </mxCell>
        <mxCell id="8-0DUaSqQJlFpMWTqGrt-98" value="Password (*)&lt;br style=&quot;border-color: var(--border-color); font-size: 13px;&quot;&gt;&lt;span style=&quot;font-size: 13px;&quot;&gt;Name&lt;/span&gt;&lt;br style=&quot;border-color: var(--border-color); font-size: 13px;&quot;&gt;&lt;span style=&quot;font-size: 13px;&quot;&gt;Surname&lt;/span&gt;&lt;br style=&quot;border-color: var(--border-color); font-size: 13px;&quot;&gt;&lt;span style=&quot;font-size: 13px;&quot;&gt;Email&lt;br style=&quot;font-size: 13px;&quot;&gt;Role&lt;br style=&quot;font-size: 13px;&quot;&gt;&lt;/span&gt;" style="text;html=1;align=left;verticalAlign=middle;resizable=0;points=[];autosize=1;strokeColor=none;fillColor=none;fontSize=13;" parent="8-0DUaSqQJlFpMWTqGrt-100" vertex="1">
          <mxGeometry x="37.622950819672134" y="60" width="100" height="90" as="geometry" />
        </mxCell>
        <mxCell id="8-0DUaSqQJlFpMWTqGrt-99" value="VARCHAR(15)" style="text;html=1;align=center;verticalAlign=middle;resizable=0;points=[];autosize=1;strokeColor=none;fillColor=none;fontSize=13;" parent="8-0DUaSqQJlFpMWTqGrt-100" vertex="1">
          <mxGeometry x="121.72131147540983" y="30" width="110" height="30" as="geometry" />
        </mxCell>
        <mxCell id="8-0DUaSqQJlFpMWTqGrt-101" value="" style="group;fontSize=13;" parent="1" vertex="1" connectable="0">
          <mxGeometry x="81.25" y="270" width="315.5" height="160" as="geometry" />
        </mxCell>
        <mxCell id="8-0DUaSqQJlFpMWTqGrt-102" value="Student&#39;s profile" style="shape=table;startSize=30;container=1;collapsible=1;childLayout=tableLayout;fixedRows=1;rowLines=0;fontStyle=1;align=center;resizeLast=1;html=1;fontSize=13;" parent="8-0DUaSqQJlFpMWTqGrt-101" vertex="1">
          <mxGeometry width="315.5" height="140" as="geometry" />
        </mxCell>
        <mxCell id="8-0DUaSqQJlFpMWTqGrt-103" value="" style="shape=tableRow;horizontal=0;startSize=0;swimlaneHead=0;swimlaneBody=0;fillColor=none;collapsible=0;dropTarget=0;points=[[0,0.5],[1,0.5]];portConstraint=eastwest;top=0;left=0;right=0;bottom=1;fontSize=13;" parent="8-0DUaSqQJlFpMWTqGrt-102" vertex="1">
          <mxGeometry y="30" width="315.5" height="30" as="geometry" />
        </mxCell>
        <mxCell id="8-0DUaSqQJlFpMWTqGrt-104" value="PK" style="shape=partialRectangle;connectable=0;fillColor=none;top=0;left=0;bottom=0;right=0;fontStyle=1;overflow=hidden;whiteSpace=wrap;html=1;fontSize=13;" parent="8-0DUaSqQJlFpMWTqGrt-103" vertex="1">
          <mxGeometry width="30" height="30" as="geometry">
            <mxRectangle width="30" height="30" as="alternateBounds" />
          </mxGeometry>
        </mxCell>
        <mxCell id="8-0DUaSqQJlFpMWTqGrt-105" value="StudentID" style="shape=partialRectangle;connectable=0;fillColor=none;top=0;left=0;bottom=0;right=0;align=left;spacingLeft=6;fontStyle=5;overflow=hidden;whiteSpace=wrap;html=1;fontSize=13;" parent="8-0DUaSqQJlFpMWTqGrt-103" vertex="1">
          <mxGeometry x="30" width="285.5" height="30" as="geometry">
            <mxRectangle width="285.5" height="30" as="alternateBounds" />
          </mxGeometry>
        </mxCell>
        <mxCell id="8-0DUaSqQJlFpMWTqGrt-106" value="" style="shape=tableRow;horizontal=0;startSize=0;swimlaneHead=0;swimlaneBody=0;fillColor=none;collapsible=0;dropTarget=0;points=[[0,0.5],[1,0.5]];portConstraint=eastwest;top=0;left=0;right=0;bottom=0;fontSize=13;" parent="8-0DUaSqQJlFpMWTqGrt-102" vertex="1">
          <mxGeometry y="60" width="315.5" height="80" as="geometry" />
        </mxCell>
        <mxCell id="8-0DUaSqQJlFpMWTqGrt-107" value="" style="shape=partialRectangle;connectable=0;fillColor=none;top=0;left=0;bottom=0;right=0;editable=1;overflow=hidden;whiteSpace=wrap;html=1;fontSize=13;" parent="8-0DUaSqQJlFpMWTqGrt-106" vertex="1">
          <mxGeometry width="30" height="80" as="geometry">
            <mxRectangle width="30" height="80" as="alternateBounds" />
          </mxGeometry>
        </mxCell>
        <mxCell id="8-0DUaSqQJlFpMWTqGrt-108" value="" style="shape=partialRectangle;connectable=0;fillColor=none;top=0;left=0;bottom=0;right=0;align=left;spacingLeft=6;overflow=hidden;whiteSpace=wrap;html=1;fontSize=13;" parent="8-0DUaSqQJlFpMWTqGrt-106" vertex="1">
          <mxGeometry x="30" width="285.5" height="80" as="geometry">
            <mxRectangle width="285.5" height="80" as="alternateBounds" />
          </mxGeometry>
        </mxCell>
        <mxCell id="8-0DUaSqQJlFpMWTqGrt-109" value="" style="endArrow=none;html=1;rounded=0;fontSize=13;exitX=0.534;exitY=0.99;exitDx=0;exitDy=0;exitPerimeter=0;" parent="8-0DUaSqQJlFpMWTqGrt-101" source="8-0DUaSqQJlFpMWTqGrt-106" edge="1">
          <mxGeometry width="50" height="50" relative="1" as="geometry">
            <mxPoint x="167.28837209302324" y="160" as="sourcePoint" />
            <mxPoint x="168.75581395348837" y="30" as="targetPoint" />
          </mxGeometry>
        </mxCell>
        <mxCell id="8-0DUaSqQJlFpMWTqGrt-110" value="INTEGER&lt;br style=&quot;font-size: 13px;&quot;&gt;INTEGER" style="text;html=1;align=left;verticalAlign=middle;resizable=0;points=[];autosize=1;strokeColor=none;fillColor=none;fontSize=13;" parent="8-0DUaSqQJlFpMWTqGrt-101" vertex="1">
          <mxGeometry x="177.7527906976744" y="95" width="80" height="40" as="geometry" />
        </mxCell>
        <mxCell id="8-0DUaSqQJlFpMWTqGrt-111" value="&lt;span style=&quot;font-size: 13px;&quot;&gt;BattlesWon&lt;br style=&quot;font-size: 13px;&quot;&gt;TournamentRanking&lt;br style=&quot;font-size: 13px;&quot;&gt;&lt;/span&gt;" style="text;html=1;align=left;verticalAlign=middle;resizable=0;points=[];autosize=1;strokeColor=none;fillColor=none;fontSize=13;" parent="8-0DUaSqQJlFpMWTqGrt-101" vertex="1">
          <mxGeometry x="35.75302325581395" y="97" width="140" height="40" as="geometry" />
        </mxCell>
        <mxCell id="8-0DUaSqQJlFpMWTqGrt-112" value="VARCHAR(15)" style="text;html=1;align=center;verticalAlign=middle;resizable=0;points=[];autosize=1;strokeColor=none;fillColor=none;fontSize=13;" parent="8-0DUaSqQJlFpMWTqGrt-101" vertex="1">
          <mxGeometry x="163.75581395348837" y="30" width="110" height="30" as="geometry" />
        </mxCell>
        <mxCell id="Atu7TQ1lVJbdkh35CZkr-22" value="" style="shape=tableRow;horizontal=0;startSize=0;swimlaneHead=0;swimlaneBody=0;fillColor=none;collapsible=0;dropTarget=0;points=[[0,0.5],[1,0.5]];portConstraint=eastwest;top=0;left=0;right=0;bottom=1;fontSize=13;" parent="8-0DUaSqQJlFpMWTqGrt-101" vertex="1">
          <mxGeometry y="60" width="315.5" height="30" as="geometry" />
        </mxCell>
        <mxCell id="Atu7TQ1lVJbdkh35CZkr-23" value="FK" style="shape=partialRectangle;connectable=0;fillColor=none;top=0;left=0;bottom=0;right=0;fontStyle=1;overflow=hidden;whiteSpace=wrap;html=1;fontSize=13;" parent="Atu7TQ1lVJbdkh35CZkr-22" vertex="1">
          <mxGeometry width="30" height="30" as="geometry">
            <mxRectangle width="30" height="30" as="alternateBounds" />
          </mxGeometry>
        </mxCell>
        <mxCell id="Atu7TQ1lVJbdkh35CZkr-24" value="BadgeID" style="shape=partialRectangle;connectable=0;fillColor=none;top=0;left=0;bottom=0;right=0;align=left;spacingLeft=6;fontStyle=5;overflow=hidden;whiteSpace=wrap;html=1;fontSize=13;" parent="Atu7TQ1lVJbdkh35CZkr-22" vertex="1">
          <mxGeometry x="30" width="285.5" height="30" as="geometry">
            <mxRectangle width="285.5" height="30" as="alternateBounds" />
          </mxGeometry>
        </mxCell>
        <mxCell id="Atu7TQ1lVJbdkh35CZkr-25" value="INTEGER" style="text;html=1;align=center;verticalAlign=middle;resizable=0;points=[];autosize=1;strokeColor=none;fillColor=none;fontSize=13;" parent="8-0DUaSqQJlFpMWTqGrt-101" vertex="1">
          <mxGeometry x="167.75581395348837" y="60" width="80" height="30" as="geometry" />
        </mxCell>
        <mxCell id="8-0DUaSqQJlFpMWTqGrt-127" value="" style="group;fontSize=13;" parent="1" vertex="1" connectable="0">
          <mxGeometry x="440" y="826" width="320" height="190" as="geometry" />
        </mxCell>
        <mxCell id="8-0DUaSqQJlFpMWTqGrt-128" value="Badges" style="shape=table;startSize=30;container=1;collapsible=1;childLayout=tableLayout;fixedRows=1;rowLines=0;fontStyle=1;align=center;resizeLast=1;html=1;fontSize=13;" parent="8-0DUaSqQJlFpMWTqGrt-127" vertex="1">
          <mxGeometry width="320" height="150" as="geometry" />
        </mxCell>
        <mxCell id="8-0DUaSqQJlFpMWTqGrt-129" value="" style="shape=tableRow;horizontal=0;startSize=0;swimlaneHead=0;swimlaneBody=0;fillColor=none;collapsible=0;dropTarget=0;points=[[0,0.5],[1,0.5]];portConstraint=eastwest;top=0;left=0;right=0;bottom=1;fontSize=13;" parent="8-0DUaSqQJlFpMWTqGrt-128" vertex="1">
          <mxGeometry y="30" width="320" height="30" as="geometry" />
        </mxCell>
        <mxCell id="8-0DUaSqQJlFpMWTqGrt-130" value="PK" style="shape=partialRectangle;connectable=0;fillColor=none;top=0;left=0;bottom=0;right=0;fontStyle=1;overflow=hidden;whiteSpace=wrap;html=1;fontSize=13;" parent="8-0DUaSqQJlFpMWTqGrt-129" vertex="1">
          <mxGeometry width="30" height="30" as="geometry">
            <mxRectangle width="30" height="30" as="alternateBounds" />
          </mxGeometry>
        </mxCell>
        <mxCell id="8-0DUaSqQJlFpMWTqGrt-131" value="BadgeID" style="shape=partialRectangle;connectable=0;fillColor=none;top=0;left=0;bottom=0;right=0;align=left;spacingLeft=6;fontStyle=5;overflow=hidden;whiteSpace=wrap;html=1;fontSize=13;" parent="8-0DUaSqQJlFpMWTqGrt-129" vertex="1">
          <mxGeometry x="30" width="290" height="30" as="geometry">
            <mxRectangle width="290" height="30" as="alternateBounds" />
          </mxGeometry>
        </mxCell>
        <mxCell id="8-0DUaSqQJlFpMWTqGrt-132" value="" style="shape=tableRow;horizontal=0;startSize=0;swimlaneHead=0;swimlaneBody=0;fillColor=none;collapsible=0;dropTarget=0;points=[[0,0.5],[1,0.5]];portConstraint=eastwest;top=0;left=0;right=0;bottom=0;fontSize=13;" parent="8-0DUaSqQJlFpMWTqGrt-128" vertex="1">
          <mxGeometry y="60" width="320" height="90" as="geometry" />
        </mxCell>
        <mxCell id="8-0DUaSqQJlFpMWTqGrt-133" value="" style="shape=partialRectangle;connectable=0;fillColor=none;top=0;left=0;bottom=0;right=0;editable=1;overflow=hidden;whiteSpace=wrap;html=1;fontSize=13;" parent="8-0DUaSqQJlFpMWTqGrt-132" vertex="1">
          <mxGeometry width="30" height="90" as="geometry">
            <mxRectangle width="30" height="90" as="alternateBounds" />
          </mxGeometry>
        </mxCell>
        <mxCell id="8-0DUaSqQJlFpMWTqGrt-134" value="" style="shape=partialRectangle;connectable=0;fillColor=none;top=0;left=0;bottom=0;right=0;align=left;spacingLeft=6;overflow=hidden;whiteSpace=wrap;html=1;fontSize=13;" parent="8-0DUaSqQJlFpMWTqGrt-132" vertex="1">
          <mxGeometry x="30" width="290" height="90" as="geometry">
            <mxRectangle width="290" height="90" as="alternateBounds" />
          </mxGeometry>
        </mxCell>
        <mxCell id="8-0DUaSqQJlFpMWTqGrt-135" value="" style="endArrow=none;html=1;rounded=0;fontSize=13;" parent="8-0DUaSqQJlFpMWTqGrt-127" edge="1">
          <mxGeometry width="50" height="50" relative="1" as="geometry">
            <mxPoint x="171" y="150" as="sourcePoint" />
            <mxPoint x="171.16279069767444" y="30" as="targetPoint" />
          </mxGeometry>
        </mxCell>
        <mxCell id="8-0DUaSqQJlFpMWTqGrt-138" value="INTEGER" style="text;html=1;align=center;verticalAlign=middle;resizable=0;points=[];autosize=1;strokeColor=none;fillColor=none;fontSize=13;" parent="8-0DUaSqQJlFpMWTqGrt-127" vertex="1">
          <mxGeometry x="170.00136212624585" y="30" width="80" height="30" as="geometry" />
        </mxCell>
        <mxCell id="8-0DUaSqQJlFpMWTqGrt-142" value="" style="shape=tableRow;horizontal=0;startSize=0;swimlaneHead=0;swimlaneBody=0;fillColor=none;collapsible=0;dropTarget=0;points=[[0,0.5],[1,0.5]];portConstraint=eastwest;top=0;left=0;right=0;bottom=1;fontSize=13;" parent="8-0DUaSqQJlFpMWTqGrt-127" vertex="1">
          <mxGeometry y="60" width="320" height="30" as="geometry" />
        </mxCell>
        <mxCell id="8-0DUaSqQJlFpMWTqGrt-143" value="&lt;span style=&quot;font-weight: normal; font-size: 13px;&quot;&gt;FK&lt;/span&gt;" style="shape=partialRectangle;connectable=0;fillColor=none;top=0;left=0;bottom=0;right=0;fontStyle=1;overflow=hidden;whiteSpace=wrap;html=1;fontSize=13;" parent="8-0DUaSqQJlFpMWTqGrt-142" vertex="1">
          <mxGeometry width="30" height="30" as="geometry">
            <mxRectangle width="30" height="30" as="alternateBounds" />
          </mxGeometry>
        </mxCell>
        <mxCell id="8-0DUaSqQJlFpMWTqGrt-144" value="&lt;span style=&quot;font-weight: normal; font-size: 13px;&quot;&gt;TournamentID&lt;/span&gt;" style="shape=partialRectangle;connectable=0;fillColor=none;top=0;left=0;bottom=0;right=0;align=left;spacingLeft=6;fontStyle=5;overflow=hidden;whiteSpace=wrap;html=1;fontSize=13;" parent="8-0DUaSqQJlFpMWTqGrt-142" vertex="1">
          <mxGeometry x="30" width="290" height="30" as="geometry">
            <mxRectangle width="290" height="30" as="alternateBounds" />
          </mxGeometry>
        </mxCell>
        <mxCell id="8-0DUaSqQJlFpMWTqGrt-158" value="INTEGER" style="text;html=1;align=center;verticalAlign=middle;resizable=0;points=[];autosize=1;strokeColor=none;fillColor=none;fontSize=13;" parent="8-0DUaSqQJlFpMWTqGrt-127" vertex="1">
          <mxGeometry x="170.00136212624585" y="60" width="80" height="30" as="geometry" />
        </mxCell>
        <mxCell id="8-0DUaSqQJlFpMWTqGrt-137" value="&lt;span style=&quot;font-size: 13px;&quot;&gt;Title&amp;nbsp;&lt;br style=&quot;font-size: 13px;&quot;&gt;Rules&lt;br style=&quot;font-size: 13px;&quot;&gt;Description&lt;br style=&quot;font-size: 13px;&quot;&gt;&lt;/span&gt;" style="text;html=1;align=left;verticalAlign=middle;resizable=0;points=[];autosize=1;strokeColor=none;fillColor=none;fontSize=13;" parent="8-0DUaSqQJlFpMWTqGrt-127" vertex="1">
          <mxGeometry x="37.00322259136212" y="90" width="90" height="60" as="geometry" />
        </mxCell>
        <mxCell id="8-0DUaSqQJlFpMWTqGrt-136" value="VARCHAR(30)&lt;br style=&quot;font-size: 13px;&quot;&gt;VARCHAR(150)&lt;br style=&quot;font-size: 13px;&quot;&gt;VARCHAR(150)&lt;br style=&quot;font-size: 13px;&quot;&gt;" style="text;html=1;align=left;verticalAlign=middle;resizable=0;points=[];autosize=1;strokeColor=none;fillColor=none;fontSize=13;" parent="8-0DUaSqQJlFpMWTqGrt-127" vertex="1">
          <mxGeometry x="179.9981395348837" y="90" width="120" height="60" as="geometry" />
        </mxCell>
        <mxCell id="8-0DUaSqQJlFpMWTqGrt-159" value="&lt;&lt;&lt;" style="group;fontSize=13;" parent="1" vertex="1" connectable="0">
          <mxGeometry x="804" y="439" width="320" height="225" as="geometry" />
        </mxCell>
        <mxCell id="8-0DUaSqQJlFpMWTqGrt-160" value="Battle" style="shape=table;startSize=30;container=1;collapsible=1;childLayout=tableLayout;fixedRows=1;rowLines=0;fontStyle=1;align=center;resizeLast=1;html=1;fontSize=13;" parent="8-0DUaSqQJlFpMWTqGrt-159" vertex="1">
          <mxGeometry width="320" height="230.0000000000001" as="geometry" />
        </mxCell>
        <mxCell id="8-0DUaSqQJlFpMWTqGrt-161" value="" style="shape=tableRow;horizontal=0;startSize=0;swimlaneHead=0;swimlaneBody=0;fillColor=none;collapsible=0;dropTarget=0;points=[[0,0.5],[1,0.5]];portConstraint=eastwest;top=0;left=0;right=0;bottom=1;fontSize=13;" parent="8-0DUaSqQJlFpMWTqGrt-160" vertex="1">
          <mxGeometry y="30" width="320" height="30" as="geometry" />
        </mxCell>
        <mxCell id="8-0DUaSqQJlFpMWTqGrt-162" value="PK" style="shape=partialRectangle;connectable=0;fillColor=none;top=0;left=0;bottom=0;right=0;fontStyle=1;overflow=hidden;whiteSpace=wrap;html=1;fontSize=13;" parent="8-0DUaSqQJlFpMWTqGrt-161" vertex="1">
          <mxGeometry width="30" height="30" as="geometry">
            <mxRectangle width="30" height="30" as="alternateBounds" />
          </mxGeometry>
        </mxCell>
        <mxCell id="8-0DUaSqQJlFpMWTqGrt-163" value="BattleID" style="shape=partialRectangle;connectable=0;fillColor=none;top=0;left=0;bottom=0;right=0;align=left;spacingLeft=6;fontStyle=5;overflow=hidden;whiteSpace=wrap;html=1;fontSize=13;" parent="8-0DUaSqQJlFpMWTqGrt-161" vertex="1">
          <mxGeometry x="30" width="290" height="30" as="geometry">
            <mxRectangle width="290" height="30" as="alternateBounds" />
          </mxGeometry>
        </mxCell>
        <mxCell id="8-0DUaSqQJlFpMWTqGrt-164" value="" style="shape=tableRow;horizontal=0;startSize=0;swimlaneHead=0;swimlaneBody=0;fillColor=none;collapsible=0;dropTarget=0;points=[[0,0.5],[1,0.5]];portConstraint=eastwest;top=0;left=0;right=0;bottom=0;fontSize=13;" parent="8-0DUaSqQJlFpMWTqGrt-160" vertex="1">
          <mxGeometry y="60" width="320" height="170" as="geometry" />
        </mxCell>
        <mxCell id="8-0DUaSqQJlFpMWTqGrt-165" value="" style="shape=partialRectangle;connectable=0;fillColor=none;top=0;left=0;bottom=0;right=0;editable=1;overflow=hidden;whiteSpace=wrap;html=1;fontSize=13;" parent="8-0DUaSqQJlFpMWTqGrt-164" vertex="1">
          <mxGeometry width="30" height="170" as="geometry">
            <mxRectangle width="30" height="170" as="alternateBounds" />
          </mxGeometry>
        </mxCell>
        <mxCell id="8-0DUaSqQJlFpMWTqGrt-166" value="" style="shape=partialRectangle;connectable=0;fillColor=none;top=0;left=0;bottom=0;right=0;align=left;spacingLeft=6;overflow=hidden;whiteSpace=wrap;html=1;fontSize=13;" parent="8-0DUaSqQJlFpMWTqGrt-164" vertex="1">
          <mxGeometry x="30" width="290" height="170" as="geometry">
            <mxRectangle width="290" height="170" as="alternateBounds" />
          </mxGeometry>
        </mxCell>
        <mxCell id="8-0DUaSqQJlFpMWTqGrt-167" value="" style="endArrow=none;html=1;rounded=0;exitX=0.537;exitY=1.002;exitDx=0;exitDy=0;exitPerimeter=0;fontSize=13;" parent="8-0DUaSqQJlFpMWTqGrt-159" source="8-0DUaSqQJlFpMWTqGrt-164" edge="1">
          <mxGeometry width="50" height="50" relative="1" as="geometry">
            <mxPoint x="171" y="150" as="sourcePoint" />
            <mxPoint x="171.16279069767444" y="30" as="targetPoint" />
          </mxGeometry>
        </mxCell>
        <mxCell id="8-0DUaSqQJlFpMWTqGrt-168" value="INTEGER" style="text;html=1;align=center;verticalAlign=middle;resizable=0;points=[];autosize=1;strokeColor=none;fillColor=none;fontSize=13;" parent="8-0DUaSqQJlFpMWTqGrt-159" vertex="1">
          <mxGeometry x="170.00136212624585" y="30" width="80" height="30" as="geometry" />
        </mxCell>
        <mxCell id="8-0DUaSqQJlFpMWTqGrt-169" value="" style="shape=tableRow;horizontal=0;startSize=0;swimlaneHead=0;swimlaneBody=0;fillColor=none;collapsible=0;dropTarget=0;points=[[0,0.5],[1,0.5]];portConstraint=eastwest;top=0;left=0;right=0;bottom=1;fontSize=13;" parent="8-0DUaSqQJlFpMWTqGrt-159" vertex="1">
          <mxGeometry y="60" width="320" height="30" as="geometry" />
        </mxCell>
        <mxCell id="8-0DUaSqQJlFpMWTqGrt-170" value="&lt;span style=&quot;font-weight: normal; font-size: 13px;&quot;&gt;FK&lt;/span&gt;" style="shape=partialRectangle;connectable=0;fillColor=none;top=0;left=0;bottom=0;right=0;fontStyle=1;overflow=hidden;whiteSpace=wrap;html=1;fontSize=13;" parent="8-0DUaSqQJlFpMWTqGrt-169" vertex="1">
          <mxGeometry width="30" height="30" as="geometry">
            <mxRectangle width="30" height="30" as="alternateBounds" />
          </mxGeometry>
        </mxCell>
        <mxCell id="8-0DUaSqQJlFpMWTqGrt-171" value="&lt;span style=&quot;font-weight: normal; font-size: 13px;&quot;&gt;TournamentID&lt;/span&gt;" style="shape=partialRectangle;connectable=0;fillColor=none;top=0;left=0;bottom=0;right=0;align=left;spacingLeft=6;fontStyle=5;overflow=hidden;whiteSpace=wrap;html=1;fontSize=13;" parent="8-0DUaSqQJlFpMWTqGrt-169" vertex="1">
          <mxGeometry x="30" width="290" height="30" as="geometry">
            <mxRectangle width="290" height="30" as="alternateBounds" />
          </mxGeometry>
        </mxCell>
        <mxCell id="8-0DUaSqQJlFpMWTqGrt-172" value="INTEGER" style="text;html=1;align=center;verticalAlign=middle;resizable=0;points=[];autosize=1;strokeColor=none;fillColor=none;fontSize=13;" parent="8-0DUaSqQJlFpMWTqGrt-159" vertex="1">
          <mxGeometry x="170.00136212624585" y="60" width="80" height="30" as="geometry" />
        </mxCell>
        <mxCell id="8-0DUaSqQJlFpMWTqGrt-173" value="&lt;span style=&quot;font-size: 13px;&quot;&gt;Name&lt;br style=&quot;font-size: 13px;&quot;&gt;MinTeam&lt;br style=&quot;font-size: 13px;&quot;&gt;MaxTeam&lt;br style=&quot;font-size: 13px;&quot;&gt;CodeKata&lt;br style=&quot;font-size: 13px;&quot;&gt;EnrollmentDeadline&lt;br style=&quot;font-size: 13px;&quot;&gt;FinalDeadline&lt;br style=&quot;font-size: 13px;&quot;&gt;&lt;/span&gt;" style="text;html=1;align=left;verticalAlign=middle;resizable=0;points=[];autosize=1;strokeColor=none;fillColor=none;fontSize=13;" parent="8-0DUaSqQJlFpMWTqGrt-159" vertex="1">
          <mxGeometry x="39.99322259136212" y="117" width="140" height="110" as="geometry" />
        </mxCell>
        <mxCell id="8-0DUaSqQJlFpMWTqGrt-174" value="VARCHAR(30)&lt;br style=&quot;font-size: 13px;&quot;&gt;INTEGER&lt;br style=&quot;font-size: 13px;&quot;&gt;INTEGER&lt;br style=&quot;font-size: 13px;&quot;&gt;FILE&lt;br style=&quot;font-size: 13px;&quot;&gt;DATE&lt;br style=&quot;font-size: 13px;&quot;&gt;DATE" style="text;html=1;align=left;verticalAlign=middle;resizable=0;points=[];autosize=1;strokeColor=none;fillColor=none;fontSize=13;" parent="8-0DUaSqQJlFpMWTqGrt-159" vertex="1">
          <mxGeometry x="179.9981395348837" y="117" width="110" height="110" as="geometry" />
        </mxCell>
        <mxCell id="8-0DUaSqQJlFpMWTqGrt-175" value="" style="shape=tableRow;horizontal=0;startSize=0;swimlaneHead=0;swimlaneBody=0;fillColor=none;collapsible=0;dropTarget=0;points=[[0,0.5],[1,0.5]];portConstraint=eastwest;top=0;left=0;right=0;bottom=1;fontSize=13;" parent="8-0DUaSqQJlFpMWTqGrt-159" vertex="1">
          <mxGeometry y="90" width="320" height="30" as="geometry" />
        </mxCell>
        <mxCell id="8-0DUaSqQJlFpMWTqGrt-176" value="&lt;span style=&quot;font-weight: normal; font-size: 13px;&quot;&gt;FK&lt;/span&gt;" style="shape=partialRectangle;connectable=0;fillColor=none;top=0;left=0;bottom=0;right=0;fontStyle=1;overflow=hidden;whiteSpace=wrap;html=1;fontSize=13;" parent="8-0DUaSqQJlFpMWTqGrt-175" vertex="1">
          <mxGeometry width="30" height="30" as="geometry">
            <mxRectangle width="30" height="30" as="alternateBounds" />
          </mxGeometry>
        </mxCell>
        <mxCell id="8-0DUaSqQJlFpMWTqGrt-177" value="&lt;span style=&quot;font-weight: 400; font-size: 13px;&quot;&gt;CreatorUsername&lt;/span&gt;" style="shape=partialRectangle;connectable=0;fillColor=none;top=0;left=0;bottom=0;right=0;align=left;spacingLeft=6;fontStyle=5;overflow=hidden;whiteSpace=wrap;html=1;fontSize=13;" parent="8-0DUaSqQJlFpMWTqGrt-175" vertex="1">
          <mxGeometry x="30" width="290" height="30" as="geometry">
            <mxRectangle width="290" height="30" as="alternateBounds" />
          </mxGeometry>
        </mxCell>
        <mxCell id="8-0DUaSqQJlFpMWTqGrt-186" value="VARCHAR(15)" style="text;html=1;align=center;verticalAlign=middle;resizable=0;points=[];autosize=1;strokeColor=none;fillColor=none;fontSize=13;" parent="8-0DUaSqQJlFpMWTqGrt-159" vertex="1">
          <mxGeometry x="165.0013621262458" y="90" width="110" height="30" as="geometry" />
        </mxCell>
        <mxCell id="Atu7TQ1lVJbdkh35CZkr-1" value="" style="group;fontSize=13;" parent="1" vertex="1" connectable="0">
          <mxGeometry x="851" y="820" width="320" height="200" as="geometry" />
        </mxCell>
        <mxCell id="Atu7TQ1lVJbdkh35CZkr-2" value="Team" style="shape=table;startSize=30;container=1;collapsible=1;childLayout=tableLayout;fixedRows=1;rowLines=0;fontStyle=1;align=center;resizeLast=1;html=1;fontSize=13;" parent="Atu7TQ1lVJbdkh35CZkr-1" vertex="1">
          <mxGeometry x="-36" y="-107" width="320" height="120.00000000000011" as="geometry" />
        </mxCell>
        <mxCell id="Atu7TQ1lVJbdkh35CZkr-3" value="" style="shape=tableRow;horizontal=0;startSize=0;swimlaneHead=0;swimlaneBody=0;fillColor=none;collapsible=0;dropTarget=0;points=[[0,0.5],[1,0.5]];portConstraint=eastwest;top=0;left=0;right=0;bottom=1;fontSize=13;" parent="Atu7TQ1lVJbdkh35CZkr-2" vertex="1">
          <mxGeometry y="30" width="320" height="30" as="geometry" />
        </mxCell>
        <mxCell id="Atu7TQ1lVJbdkh35CZkr-4" value="PK" style="shape=partialRectangle;connectable=0;fillColor=none;top=0;left=0;bottom=0;right=0;fontStyle=1;overflow=hidden;whiteSpace=wrap;html=1;fontSize=13;" parent="Atu7TQ1lVJbdkh35CZkr-3" vertex="1">
          <mxGeometry width="30" height="30" as="geometry">
            <mxRectangle width="30" height="30" as="alternateBounds" />
          </mxGeometry>
        </mxCell>
        <mxCell id="Atu7TQ1lVJbdkh35CZkr-5" value="TeamID" style="shape=partialRectangle;connectable=0;fillColor=none;top=0;left=0;bottom=0;right=0;align=left;spacingLeft=6;fontStyle=5;overflow=hidden;whiteSpace=wrap;html=1;fontSize=13;" parent="Atu7TQ1lVJbdkh35CZkr-3" vertex="1">
          <mxGeometry x="30" width="290" height="30" as="geometry">
            <mxRectangle width="290" height="30" as="alternateBounds" />
          </mxGeometry>
        </mxCell>
        <mxCell id="Atu7TQ1lVJbdkh35CZkr-6" value="" style="shape=tableRow;horizontal=0;startSize=0;swimlaneHead=0;swimlaneBody=0;fillColor=none;collapsible=0;dropTarget=0;points=[[0,0.5],[1,0.5]];portConstraint=eastwest;top=0;left=0;right=0;bottom=0;fontSize=13;" parent="Atu7TQ1lVJbdkh35CZkr-2" vertex="1">
          <mxGeometry y="60" width="320" height="60" as="geometry" />
        </mxCell>
        <mxCell id="Atu7TQ1lVJbdkh35CZkr-7" value="" style="shape=partialRectangle;connectable=0;fillColor=none;top=0;left=0;bottom=0;right=0;editable=1;overflow=hidden;whiteSpace=wrap;html=1;fontSize=13;" parent="Atu7TQ1lVJbdkh35CZkr-6" vertex="1">
          <mxGeometry width="30" height="60" as="geometry">
            <mxRectangle width="30" height="60" as="alternateBounds" />
          </mxGeometry>
        </mxCell>
        <mxCell id="Atu7TQ1lVJbdkh35CZkr-8" value="" style="shape=partialRectangle;connectable=0;fillColor=none;top=0;left=0;bottom=0;right=0;align=left;spacingLeft=6;overflow=hidden;whiteSpace=wrap;html=1;fontSize=13;" parent="Atu7TQ1lVJbdkh35CZkr-6" vertex="1">
          <mxGeometry x="30" width="290" height="60" as="geometry">
            <mxRectangle width="290" height="60" as="alternateBounds" />
          </mxGeometry>
        </mxCell>
        <mxCell id="Atu7TQ1lVJbdkh35CZkr-9" value="" style="endArrow=none;html=1;rounded=0;exitX=0.54;exitY=0.991;exitDx=0;exitDy=0;exitPerimeter=0;fontSize=13;" parent="Atu7TQ1lVJbdkh35CZkr-1" source="Atu7TQ1lVJbdkh35CZkr-6" edge="1">
          <mxGeometry width="50" height="50" relative="1" as="geometry">
            <mxPoint x="135" y="43" as="sourcePoint" />
            <mxPoint x="135.16279069767444" y="-77" as="targetPoint" />
          </mxGeometry>
        </mxCell>
        <mxCell id="Atu7TQ1lVJbdkh35CZkr-10" value="INTEGER" style="text;html=1;align=center;verticalAlign=middle;resizable=0;points=[];autosize=1;strokeColor=none;fillColor=none;fontSize=13;" parent="Atu7TQ1lVJbdkh35CZkr-1" vertex="1">
          <mxGeometry x="134.00136212624585" y="-77" width="80" height="30" as="geometry" />
        </mxCell>
        <mxCell id="Atu7TQ1lVJbdkh35CZkr-11" value="" style="shape=tableRow;horizontal=0;startSize=0;swimlaneHead=0;swimlaneBody=0;fillColor=none;collapsible=0;dropTarget=0;points=[[0,0.5],[1,0.5]];portConstraint=eastwest;top=0;left=0;right=0;bottom=1;fontSize=13;" parent="Atu7TQ1lVJbdkh35CZkr-1" vertex="1">
          <mxGeometry x="-36" y="-47" width="320" height="30" as="geometry" />
        </mxCell>
        <mxCell id="Atu7TQ1lVJbdkh35CZkr-12" value="&lt;span style=&quot;font-weight: normal; font-size: 13px;&quot;&gt;FK&lt;/span&gt;" style="shape=partialRectangle;connectable=0;fillColor=none;top=0;left=0;bottom=0;right=0;fontStyle=1;overflow=hidden;whiteSpace=wrap;html=1;fontSize=13;" parent="Atu7TQ1lVJbdkh35CZkr-11" vertex="1">
          <mxGeometry width="30" height="30" as="geometry">
            <mxRectangle width="30" height="30" as="alternateBounds" />
          </mxGeometry>
        </mxCell>
        <mxCell id="Atu7TQ1lVJbdkh35CZkr-13" value="&lt;span style=&quot;font-weight: normal; font-size: 13px;&quot;&gt;BattleID&lt;/span&gt;" style="shape=partialRectangle;connectable=0;fillColor=none;top=0;left=0;bottom=0;right=0;align=left;spacingLeft=6;fontStyle=5;overflow=hidden;whiteSpace=wrap;html=1;fontSize=13;" parent="Atu7TQ1lVJbdkh35CZkr-11" vertex="1">
          <mxGeometry x="30" width="290" height="30" as="geometry">
            <mxRectangle width="290" height="30" as="alternateBounds" />
          </mxGeometry>
        </mxCell>
        <mxCell id="Atu7TQ1lVJbdkh35CZkr-14" value="INTEGER" style="text;html=1;align=center;verticalAlign=middle;resizable=0;points=[];autosize=1;strokeColor=none;fillColor=none;fontSize=13;" parent="Atu7TQ1lVJbdkh35CZkr-1" vertex="1">
          <mxGeometry x="134.00136212624585" y="-47" width="80" height="30" as="geometry" />
        </mxCell>
        <mxCell id="Atu7TQ1lVJbdkh35CZkr-17" value="" style="shape=tableRow;horizontal=0;startSize=0;swimlaneHead=0;swimlaneBody=0;fillColor=none;collapsible=0;dropTarget=0;points=[[0,0.5],[1,0.5]];portConstraint=eastwest;top=0;left=0;right=0;bottom=1;fontSize=13;" parent="Atu7TQ1lVJbdkh35CZkr-1" vertex="1">
          <mxGeometry x="-36" y="-17" width="320" height="30" as="geometry" />
        </mxCell>
        <mxCell id="Atu7TQ1lVJbdkh35CZkr-18" value="&lt;span style=&quot;font-weight: normal; font-size: 13px;&quot;&gt;FK&lt;/span&gt;" style="shape=partialRectangle;connectable=0;fillColor=none;top=0;left=0;bottom=0;right=0;fontStyle=1;overflow=hidden;whiteSpace=wrap;html=1;fontSize=13;" parent="Atu7TQ1lVJbdkh35CZkr-17" vertex="1">
          <mxGeometry width="30" height="30" as="geometry">
            <mxRectangle width="30" height="30" as="alternateBounds" />
          </mxGeometry>
        </mxCell>
        <mxCell id="Atu7TQ1lVJbdkh35CZkr-19" value="&lt;span style=&quot;font-weight: 400; font-size: 13px;&quot;&gt;StudentID&lt;/span&gt;" style="shape=partialRectangle;connectable=0;fillColor=none;top=0;left=0;bottom=0;right=0;align=left;spacingLeft=6;fontStyle=5;overflow=hidden;whiteSpace=wrap;html=1;fontSize=13;" parent="Atu7TQ1lVJbdkh35CZkr-17" vertex="1">
          <mxGeometry x="30" width="290" height="30" as="geometry">
            <mxRectangle width="290" height="30" as="alternateBounds" />
          </mxGeometry>
        </mxCell>
        <mxCell id="Atu7TQ1lVJbdkh35CZkr-20" value="VARCHAR(15)" style="text;html=1;align=center;verticalAlign=middle;resizable=0;points=[];autosize=1;strokeColor=none;fillColor=none;fontSize=13;" parent="Atu7TQ1lVJbdkh35CZkr-1" vertex="1">
          <mxGeometry x="129.0013621262458" y="-17" width="110" height="30" as="geometry" />
        </mxCell>
        <mxCell id="Atu7TQ1lVJbdkh35CZkr-26" value="" style="group;fontSize=13;" parent="1" vertex="1" connectable="0">
          <mxGeometry x="70" y="486" width="320" height="365" as="geometry" />
        </mxCell>
        <mxCell id="Atu7TQ1lVJbdkh35CZkr-35" value="INTEGER" style="text;html=1;align=left;verticalAlign=middle;resizable=0;points=[];autosize=1;strokeColor=none;fillColor=none;fontSize=13;" parent="Atu7TQ1lVJbdkh35CZkr-26" vertex="1">
          <mxGeometry x="191.9981395348837" y="80" width="80" height="30" as="geometry" />
        </mxCell>
        <mxCell id="Atu7TQ1lVJbdkh35CZkr-36" value="INTEGER" style="text;html=1;align=center;verticalAlign=middle;resizable=0;points=[];autosize=1;strokeColor=none;fillColor=none;fontSize=13;" parent="Atu7TQ1lVJbdkh35CZkr-26" vertex="1">
          <mxGeometry x="182.00136212624585" y="20" width="80" height="30" as="geometry" />
        </mxCell>
        <mxCell id="Atu7TQ1lVJbdkh35CZkr-37" value="" style="shape=tableRow;horizontal=0;startSize=0;swimlaneHead=0;swimlaneBody=0;fillColor=none;collapsible=0;dropTarget=0;points=[[0,0.5],[1,0.5]];portConstraint=eastwest;top=0;left=0;right=0;bottom=1;fontSize=13;" parent="Atu7TQ1lVJbdkh35CZkr-26" vertex="1">
          <mxGeometry x="12" y="50" width="320" height="30" as="geometry" />
        </mxCell>
        <mxCell id="Atu7TQ1lVJbdkh35CZkr-38" value="&lt;span style=&quot;font-weight: normal; font-size: 13px;&quot;&gt;FK&lt;/span&gt;" style="shape=partialRectangle;connectable=0;fillColor=none;top=0;left=0;bottom=0;right=0;fontStyle=1;overflow=hidden;whiteSpace=wrap;html=1;fontSize=13;" parent="Atu7TQ1lVJbdkh35CZkr-37" vertex="1">
          <mxGeometry width="30" height="30" as="geometry">
            <mxRectangle width="30" height="30" as="alternateBounds" />
          </mxGeometry>
        </mxCell>
        <mxCell id="Atu7TQ1lVJbdkh35CZkr-39" value="&lt;span style=&quot;font-weight: 400; font-size: 13px;&quot;&gt;StudentID&lt;/span&gt;" style="shape=partialRectangle;connectable=0;fillColor=none;top=0;left=0;bottom=0;right=0;align=left;spacingLeft=6;fontStyle=5;overflow=hidden;whiteSpace=wrap;html=1;fontSize=13;" parent="Atu7TQ1lVJbdkh35CZkr-37" vertex="1">
          <mxGeometry x="30" width="290" height="30" as="geometry">
            <mxRectangle width="290" height="30" as="alternateBounds" />
          </mxGeometry>
        </mxCell>
        <mxCell id="Atu7TQ1lVJbdkh35CZkr-40" value="VARCHAR(15)" style="text;html=1;align=center;verticalAlign=middle;resizable=0;points=[];autosize=1;strokeColor=none;fillColor=none;fontSize=13;" parent="Atu7TQ1lVJbdkh35CZkr-26" vertex="1">
          <mxGeometry x="177.00136212624585" y="50" width="110" height="30" as="geometry" />
        </mxCell>
        <mxCell id="Atu7TQ1lVJbdkh35CZkr-41" value="&lt;span style=&quot;font-size: 13px;&quot;&gt;Score&lt;br style=&quot;font-size: 13px;&quot;&gt;&lt;/span&gt;" style="text;html=1;align=left;verticalAlign=middle;resizable=0;points=[];autosize=1;strokeColor=none;fillColor=none;fontSize=13;" parent="Atu7TQ1lVJbdkh35CZkr-26" vertex="1">
          <mxGeometry x="49.71322259136212" y="80" width="60" height="30" as="geometry" />
        </mxCell>
        <mxCell id="8-0DUaSqQJlFpMWTqGrt-114" value="" style="group;fontSize=13;" parent="Atu7TQ1lVJbdkh35CZkr-26" vertex="1" connectable="0">
          <mxGeometry y="170" width="320" height="195" as="geometry" />
        </mxCell>
        <mxCell id="8-0DUaSqQJlFpMWTqGrt-115" value="Tournament" style="shape=table;startSize=30;container=1;collapsible=1;childLayout=tableLayout;fixedRows=1;rowLines=0;fontStyle=1;align=center;resizeLast=1;html=1;fontSize=13;" parent="8-0DUaSqQJlFpMWTqGrt-114" vertex="1">
          <mxGeometry width="320" height="184" as="geometry" />
        </mxCell>
        <mxCell id="8-0DUaSqQJlFpMWTqGrt-116" value="" style="shape=tableRow;horizontal=0;startSize=0;swimlaneHead=0;swimlaneBody=0;fillColor=none;collapsible=0;dropTarget=0;points=[[0,0.5],[1,0.5]];portConstraint=eastwest;top=0;left=0;right=0;bottom=1;fontSize=13;" parent="8-0DUaSqQJlFpMWTqGrt-115" vertex="1">
          <mxGeometry y="30" width="320" height="30" as="geometry" />
        </mxCell>
        <mxCell id="8-0DUaSqQJlFpMWTqGrt-117" value="PK" style="shape=partialRectangle;connectable=0;fillColor=none;top=0;left=0;bottom=0;right=0;fontStyle=1;overflow=hidden;whiteSpace=wrap;html=1;fontSize=13;" parent="8-0DUaSqQJlFpMWTqGrt-116" vertex="1">
          <mxGeometry width="30" height="30" as="geometry">
            <mxRectangle width="30" height="30" as="alternateBounds" />
          </mxGeometry>
        </mxCell>
        <mxCell id="8-0DUaSqQJlFpMWTqGrt-118" value="TournamentID" style="shape=partialRectangle;connectable=0;fillColor=none;top=0;left=0;bottom=0;right=0;align=left;spacingLeft=6;fontStyle=5;overflow=hidden;whiteSpace=wrap;html=1;fontSize=13;" parent="8-0DUaSqQJlFpMWTqGrt-116" vertex="1">
          <mxGeometry x="30" width="290" height="30" as="geometry">
            <mxRectangle width="290" height="30" as="alternateBounds" />
          </mxGeometry>
        </mxCell>
        <mxCell id="8-0DUaSqQJlFpMWTqGrt-119" value="" style="shape=tableRow;horizontal=0;startSize=0;swimlaneHead=0;swimlaneBody=0;fillColor=none;collapsible=0;dropTarget=0;points=[[0,0.5],[1,0.5]];portConstraint=eastwest;top=0;left=0;right=0;bottom=0;fontSize=13;" parent="8-0DUaSqQJlFpMWTqGrt-115" vertex="1">
          <mxGeometry y="60" width="320" height="124" as="geometry" />
        </mxCell>
        <mxCell id="8-0DUaSqQJlFpMWTqGrt-120" value="" style="shape=partialRectangle;connectable=0;fillColor=none;top=0;left=0;bottom=0;right=0;editable=1;overflow=hidden;whiteSpace=wrap;html=1;fontSize=13;" parent="8-0DUaSqQJlFpMWTqGrt-119" vertex="1">
          <mxGeometry width="30" height="124" as="geometry">
            <mxRectangle width="30" height="124" as="alternateBounds" />
          </mxGeometry>
        </mxCell>
        <mxCell id="8-0DUaSqQJlFpMWTqGrt-121" value="" style="shape=partialRectangle;connectable=0;fillColor=none;top=0;left=0;bottom=0;right=0;align=left;spacingLeft=6;overflow=hidden;whiteSpace=wrap;html=1;fontSize=13;" parent="8-0DUaSqQJlFpMWTqGrt-119" vertex="1">
          <mxGeometry x="30" width="290" height="124" as="geometry">
            <mxRectangle width="290" height="124" as="alternateBounds" />
          </mxGeometry>
        </mxCell>
        <mxCell id="8-0DUaSqQJlFpMWTqGrt-122" value="" style="endArrow=none;html=1;rounded=0;exitX=0.531;exitY=0.998;exitDx=0;exitDy=0;exitPerimeter=0;entryX=0.531;entryY=-0.022;entryDx=0;entryDy=0;entryPerimeter=0;fontSize=13;" parent="8-0DUaSqQJlFpMWTqGrt-115" source="8-0DUaSqQJlFpMWTqGrt-119" target="8-0DUaSqQJlFpMWTqGrt-116" edge="1">
          <mxGeometry width="50" height="50" relative="1" as="geometry">
            <mxPoint x="169.67441860465115" y="160" as="sourcePoint" />
            <mxPoint x="171.16279069767444" y="30" as="targetPoint" />
          </mxGeometry>
        </mxCell>
        <mxCell id="8-0DUaSqQJlFpMWTqGrt-123" value="VARCHAR(30)&lt;br style=&quot;font-size: 13px;&quot;&gt;VARCHAR(30)&lt;br style=&quot;font-size: 13px;&quot;&gt;VARCHAR(30)&lt;br style=&quot;font-size: 13px;&quot;&gt;DATE&lt;br style=&quot;font-size: 13px;&quot;&gt;ENUM" style="text;html=1;align=left;verticalAlign=middle;resizable=0;points=[];autosize=1;strokeColor=none;fillColor=none;fontSize=13;" parent="8-0DUaSqQJlFpMWTqGrt-114" vertex="1">
          <mxGeometry x="181.7181395348837" y="90" width="110" height="90" as="geometry" />
        </mxCell>
        <mxCell id="8-0DUaSqQJlFpMWTqGrt-125" value="INTEGER" style="text;html=1;align=center;verticalAlign=middle;resizable=0;points=[];autosize=1;strokeColor=none;fillColor=none;fontSize=13;" parent="8-0DUaSqQJlFpMWTqGrt-114" vertex="1">
          <mxGeometry x="170.00136212624585" y="30" width="80" height="30" as="geometry" />
        </mxCell>
        <mxCell id="8-0DUaSqQJlFpMWTqGrt-182" value="" style="shape=tableRow;horizontal=0;startSize=0;swimlaneHead=0;swimlaneBody=0;fillColor=none;collapsible=0;dropTarget=0;points=[[0,0.5],[1,0.5]];portConstraint=eastwest;top=0;left=0;right=0;bottom=1;fontSize=13;" parent="8-0DUaSqQJlFpMWTqGrt-114" vertex="1">
          <mxGeometry y="60" width="320" height="30" as="geometry" />
        </mxCell>
        <mxCell id="8-0DUaSqQJlFpMWTqGrt-183" value="&lt;span style=&quot;font-weight: normal; font-size: 13px;&quot;&gt;FK&lt;/span&gt;" style="shape=partialRectangle;connectable=0;fillColor=none;top=0;left=0;bottom=0;right=0;fontStyle=1;overflow=hidden;whiteSpace=wrap;html=1;fontSize=13;" parent="8-0DUaSqQJlFpMWTqGrt-182" vertex="1">
          <mxGeometry width="30" height="30" as="geometry">
            <mxRectangle width="30" height="30" as="alternateBounds" />
          </mxGeometry>
        </mxCell>
        <mxCell id="8-0DUaSqQJlFpMWTqGrt-184" value="&lt;span style=&quot;font-weight: 400; font-size: 13px;&quot;&gt;CreatorUsername&lt;/span&gt;" style="shape=partialRectangle;connectable=0;fillColor=none;top=0;left=0;bottom=0;right=0;align=left;spacingLeft=6;fontStyle=5;overflow=hidden;whiteSpace=wrap;html=1;fontSize=13;" parent="8-0DUaSqQJlFpMWTqGrt-182" vertex="1">
          <mxGeometry x="30" width="290" height="30" as="geometry">
            <mxRectangle width="290" height="30" as="alternateBounds" />
          </mxGeometry>
        </mxCell>
        <mxCell id="8-0DUaSqQJlFpMWTqGrt-185" value="VARCHAR(15)" style="text;html=1;align=center;verticalAlign=middle;resizable=0;points=[];autosize=1;strokeColor=none;fillColor=none;fontSize=13;" parent="8-0DUaSqQJlFpMWTqGrt-114" vertex="1">
          <mxGeometry x="165.00136212624585" y="60" width="110" height="30" as="geometry" />
        </mxCell>
        <mxCell id="8-0DUaSqQJlFpMWTqGrt-124" value="&lt;span style=&quot;font-size: 13px;&quot;&gt;Name&lt;br style=&quot;font-size: 13px;&quot;&gt;Creator&lt;br style=&quot;font-size: 13px;&quot;&gt;Collaborators&lt;br style=&quot;font-size: 13px;&quot;&gt;SubscriptionDeadline&lt;br style=&quot;font-size: 13px;&quot;&gt;State&lt;br style=&quot;font-size: 13px;&quot;&gt;&lt;/span&gt;" style="text;html=1;align=left;verticalAlign=middle;resizable=0;points=[];autosize=1;strokeColor=none;fillColor=none;fontSize=13;" parent="8-0DUaSqQJlFpMWTqGrt-114" vertex="1">
          <mxGeometry x="37.71322259136212" y="90" width="150" height="90" as="geometry" />
        </mxCell>
        <mxCell id="Atu7TQ1lVJbdkh35CZkr-42" value="" style="group;fontSize=13;" parent="1" vertex="1" connectable="0">
          <mxGeometry x="796" y="260" width="320" height="190" as="geometry" />
        </mxCell>
        <mxCell id="Atu7TQ1lVJbdkh35CZkr-43" value="BattleRanking" style="shape=table;startSize=30;container=1;collapsible=1;childLayout=tableLayout;fixedRows=1;rowLines=0;fontStyle=1;align=center;resizeLast=1;html=1;fontSize=13;" parent="Atu7TQ1lVJbdkh35CZkr-42" vertex="1">
          <mxGeometry width="320" height="120" as="geometry" />
        </mxCell>
        <mxCell id="Atu7TQ1lVJbdkh35CZkr-44" value="" style="shape=tableRow;horizontal=0;startSize=0;swimlaneHead=0;swimlaneBody=0;fillColor=none;collapsible=0;dropTarget=0;points=[[0,0.5],[1,0.5]];portConstraint=eastwest;top=0;left=0;right=0;bottom=1;fontSize=13;" parent="Atu7TQ1lVJbdkh35CZkr-43" vertex="1">
          <mxGeometry y="30" width="320" height="30" as="geometry" />
        </mxCell>
        <mxCell id="Atu7TQ1lVJbdkh35CZkr-45" value="PK" style="shape=partialRectangle;connectable=0;fillColor=none;top=0;left=0;bottom=0;right=0;fontStyle=1;overflow=hidden;whiteSpace=wrap;html=1;fontSize=13;" parent="Atu7TQ1lVJbdkh35CZkr-44" vertex="1">
          <mxGeometry width="30" height="30" as="geometry">
            <mxRectangle width="30" height="30" as="alternateBounds" />
          </mxGeometry>
        </mxCell>
        <mxCell id="Atu7TQ1lVJbdkh35CZkr-46" value="BattleID" style="shape=partialRectangle;connectable=0;fillColor=none;top=0;left=0;bottom=0;right=0;align=left;spacingLeft=6;fontStyle=5;overflow=hidden;whiteSpace=wrap;html=1;fontSize=13;" parent="Atu7TQ1lVJbdkh35CZkr-44" vertex="1">
          <mxGeometry x="30" width="290" height="30" as="geometry">
            <mxRectangle width="290" height="30" as="alternateBounds" />
          </mxGeometry>
        </mxCell>
        <mxCell id="Atu7TQ1lVJbdkh35CZkr-47" value="" style="shape=tableRow;horizontal=0;startSize=0;swimlaneHead=0;swimlaneBody=0;fillColor=none;collapsible=0;dropTarget=0;points=[[0,0.5],[1,0.5]];portConstraint=eastwest;top=0;left=0;right=0;bottom=0;fontSize=13;" parent="Atu7TQ1lVJbdkh35CZkr-43" vertex="1">
          <mxGeometry y="60" width="320" height="60" as="geometry" />
        </mxCell>
        <mxCell id="Atu7TQ1lVJbdkh35CZkr-48" value="" style="shape=partialRectangle;connectable=0;fillColor=none;top=0;left=0;bottom=0;right=0;editable=1;overflow=hidden;whiteSpace=wrap;html=1;fontSize=13;" parent="Atu7TQ1lVJbdkh35CZkr-47" vertex="1">
          <mxGeometry width="30" height="60" as="geometry">
            <mxRectangle width="30" height="60" as="alternateBounds" />
          </mxGeometry>
        </mxCell>
        <mxCell id="Atu7TQ1lVJbdkh35CZkr-49" value="" style="shape=partialRectangle;connectable=0;fillColor=none;top=0;left=0;bottom=0;right=0;align=left;spacingLeft=6;overflow=hidden;whiteSpace=wrap;html=1;fontSize=13;" parent="Atu7TQ1lVJbdkh35CZkr-47" vertex="1">
          <mxGeometry x="30" width="290" height="60" as="geometry">
            <mxRectangle width="290" height="60" as="alternateBounds" />
          </mxGeometry>
        </mxCell>
        <mxCell id="Atu7TQ1lVJbdkh35CZkr-50" value="" style="endArrow=none;html=1;rounded=0;exitX=0.531;exitY=0.998;exitDx=0;exitDy=0;exitPerimeter=0;entryX=0.531;entryY=-0.022;entryDx=0;entryDy=0;entryPerimeter=0;fontSize=13;" parent="Atu7TQ1lVJbdkh35CZkr-43" source="Atu7TQ1lVJbdkh35CZkr-47" target="Atu7TQ1lVJbdkh35CZkr-44" edge="1">
          <mxGeometry width="50" height="50" relative="1" as="geometry">
            <mxPoint x="169.67441860465115" y="160" as="sourcePoint" />
            <mxPoint x="171.16279069767444" y="30" as="targetPoint" />
          </mxGeometry>
        </mxCell>
        <mxCell id="Atu7TQ1lVJbdkh35CZkr-51" value="INTEGER" style="text;html=1;align=left;verticalAlign=middle;resizable=0;points=[];autosize=1;strokeColor=none;fillColor=none;fontSize=13;" parent="Atu7TQ1lVJbdkh35CZkr-42" vertex="1">
          <mxGeometry x="179.9981395348837" y="90" width="80" height="30" as="geometry" />
        </mxCell>
        <mxCell id="Atu7TQ1lVJbdkh35CZkr-52" value="INTEGER" style="text;html=1;align=center;verticalAlign=middle;resizable=0;points=[];autosize=1;strokeColor=none;fillColor=none;fontSize=13;" parent="Atu7TQ1lVJbdkh35CZkr-42" vertex="1">
          <mxGeometry x="170.00136212624585" y="30" width="80" height="30" as="geometry" />
        </mxCell>
        <mxCell id="Atu7TQ1lVJbdkh35CZkr-53" value="" style="shape=tableRow;horizontal=0;startSize=0;swimlaneHead=0;swimlaneBody=0;fillColor=none;collapsible=0;dropTarget=0;points=[[0,0.5],[1,0.5]];portConstraint=eastwest;top=0;left=0;right=0;bottom=1;fontSize=13;" parent="Atu7TQ1lVJbdkh35CZkr-42" vertex="1">
          <mxGeometry y="60" width="320" height="30" as="geometry" />
        </mxCell>
        <mxCell id="Atu7TQ1lVJbdkh35CZkr-54" value="&lt;span style=&quot;font-weight: normal; font-size: 13px;&quot;&gt;FK&lt;/span&gt;" style="shape=partialRectangle;connectable=0;fillColor=none;top=0;left=0;bottom=0;right=0;fontStyle=1;overflow=hidden;whiteSpace=wrap;html=1;fontSize=13;" parent="Atu7TQ1lVJbdkh35CZkr-53" vertex="1">
          <mxGeometry width="30" height="30" as="geometry">
            <mxRectangle width="30" height="30" as="alternateBounds" />
          </mxGeometry>
        </mxCell>
        <mxCell id="Atu7TQ1lVJbdkh35CZkr-55" value="&lt;span style=&quot;font-weight: 400; font-size: 13px;&quot;&gt;TeamID&lt;/span&gt;" style="shape=partialRectangle;connectable=0;fillColor=none;top=0;left=0;bottom=0;right=0;align=left;spacingLeft=6;fontStyle=5;overflow=hidden;whiteSpace=wrap;html=1;fontSize=13;" parent="Atu7TQ1lVJbdkh35CZkr-53" vertex="1">
          <mxGeometry x="30" width="290" height="30" as="geometry">
            <mxRectangle width="290" height="30" as="alternateBounds" />
          </mxGeometry>
        </mxCell>
        <mxCell id="Atu7TQ1lVJbdkh35CZkr-56" value="VARCHAR(15)" style="text;html=1;align=center;verticalAlign=middle;resizable=0;points=[];autosize=1;strokeColor=none;fillColor=none;fontSize=13;" parent="Atu7TQ1lVJbdkh35CZkr-42" vertex="1">
          <mxGeometry x="165.00136212624585" y="60" width="110" height="30" as="geometry" />
        </mxCell>
        <mxCell id="Atu7TQ1lVJbdkh35CZkr-57" value="&lt;span style=&quot;font-size: 13px;&quot;&gt;Score&lt;br style=&quot;font-size: 13px;&quot;&gt;&lt;/span&gt;" style="text;html=1;align=left;verticalAlign=middle;resizable=0;points=[];autosize=1;strokeColor=none;fillColor=none;fontSize=13;" parent="Atu7TQ1lVJbdkh35CZkr-42" vertex="1">
          <mxGeometry x="37.71322259136212" y="90" width="60" height="30" as="geometry" />
        </mxCell>
        <mxCell id="Atu7TQ1lVJbdkh35CZkr-61" value="" style="fontSize=13;html=1;endArrow=ERmandOne;startArrow=ERmandOne;rounded=0;entryX=0.525;entryY=0.989;entryDx=0;entryDy=0;entryPerimeter=0;exitX=0.5;exitY=0;exitDx=0;exitDy=0;" parent="1" source="8-0DUaSqQJlFpMWTqGrt-160" target="Atu7TQ1lVJbdkh35CZkr-47" edge="1">
          <mxGeometry width="100" height="100" relative="1" as="geometry">
            <mxPoint x="975" y="669" as="sourcePoint" />
            <mxPoint x="242" y="679" as="targetPoint" />
          </mxGeometry>
        </mxCell>
        <mxCell id="Atu7TQ1lVJbdkh35CZkr-63" value="" style="edgeStyle=orthogonalEdgeStyle;fontSize=13;html=1;endArrow=ERzeroToMany;startArrow=ERmandOne;rounded=0;entryX=0.25;entryY=0;entryDx=0;entryDy=0;exitX=1;exitY=0.5;exitDx=0;exitDy=0;" parent="1" source="8-0DUaSqQJlFpMWTqGrt-182" target="8-0DUaSqQJlFpMWTqGrt-128" edge="1">
          <mxGeometry width="100" height="100" relative="1" as="geometry">
            <mxPoint x="650" y="656" as="sourcePoint" />
            <mxPoint x="690" y="656" as="targetPoint" />
            <Array as="points">
              <mxPoint x="520" y="731" />
            </Array>
          </mxGeometry>
        </mxCell>
        <mxCell id="Atu7TQ1lVJbdkh35CZkr-64" value="" style="fontSize=12;html=1;endArrow=ERoneToMany;rounded=0;exitX=0.929;exitY=1.027;exitDx=0;exitDy=0;entryX=0.5;entryY=0;entryDx=0;entryDy=0;exitPerimeter=0;" parent="1" source="8-0DUaSqQJlFpMWTqGrt-173" target="Atu7TQ1lVJbdkh35CZkr-2" edge="1">
          <mxGeometry width="100" height="100" relative="1" as="geometry">
            <mxPoint x="514" y="429" as="sourcePoint" />
            <mxPoint x="614" y="329" as="targetPoint" />
          </mxGeometry>
        </mxCell>
        <mxCell id="Atu7TQ1lVJbdkh35CZkr-27" value="TournamentRanking" style="shape=table;startSize=30;container=1;collapsible=1;childLayout=tableLayout;fixedRows=1;rowLines=0;fontStyle=1;align=center;resizeLast=1;html=1;fontSize=13;" parent="1" vertex="1">
          <mxGeometry x="79" y="476" width="320" height="120" as="geometry" />
        </mxCell>
        <mxCell id="Atu7TQ1lVJbdkh35CZkr-28" value="" style="shape=tableRow;horizontal=0;startSize=0;swimlaneHead=0;swimlaneBody=0;fillColor=none;collapsible=0;dropTarget=0;points=[[0,0.5],[1,0.5]];portConstraint=eastwest;top=0;left=0;right=0;bottom=1;fontSize=13;" parent="Atu7TQ1lVJbdkh35CZkr-27" vertex="1">
          <mxGeometry y="30" width="320" height="30" as="geometry" />
        </mxCell>
        <mxCell id="Atu7TQ1lVJbdkh35CZkr-29" value="PK" style="shape=partialRectangle;connectable=0;fillColor=none;top=0;left=0;bottom=0;right=0;fontStyle=1;overflow=hidden;whiteSpace=wrap;html=1;fontSize=13;" parent="Atu7TQ1lVJbdkh35CZkr-28" vertex="1">
          <mxGeometry width="30" height="30" as="geometry">
            <mxRectangle width="30" height="30" as="alternateBounds" />
          </mxGeometry>
        </mxCell>
        <mxCell id="Atu7TQ1lVJbdkh35CZkr-30" value="TournamentID" style="shape=partialRectangle;connectable=0;fillColor=none;top=0;left=0;bottom=0;right=0;align=left;spacingLeft=6;fontStyle=5;overflow=hidden;whiteSpace=wrap;html=1;fontSize=13;" parent="Atu7TQ1lVJbdkh35CZkr-28" vertex="1">
          <mxGeometry x="30" width="290" height="30" as="geometry">
            <mxRectangle width="290" height="30" as="alternateBounds" />
          </mxGeometry>
        </mxCell>
        <mxCell id="Atu7TQ1lVJbdkh35CZkr-31" value="" style="shape=tableRow;horizontal=0;startSize=0;swimlaneHead=0;swimlaneBody=0;fillColor=none;collapsible=0;dropTarget=0;points=[[0,0.5],[1,0.5]];portConstraint=eastwest;top=0;left=0;right=0;bottom=0;fontSize=13;" parent="Atu7TQ1lVJbdkh35CZkr-27" vertex="1">
          <mxGeometry y="60" width="320" height="60" as="geometry" />
        </mxCell>
        <mxCell id="Atu7TQ1lVJbdkh35CZkr-32" value="" style="shape=partialRectangle;connectable=0;fillColor=none;top=0;left=0;bottom=0;right=0;editable=1;overflow=hidden;whiteSpace=wrap;html=1;fontSize=13;" parent="Atu7TQ1lVJbdkh35CZkr-31" vertex="1">
          <mxGeometry width="30" height="60" as="geometry">
            <mxRectangle width="30" height="60" as="alternateBounds" />
          </mxGeometry>
        </mxCell>
        <mxCell id="Atu7TQ1lVJbdkh35CZkr-33" value="" style="shape=partialRectangle;connectable=0;fillColor=none;top=0;left=0;bottom=0;right=0;align=left;spacingLeft=6;overflow=hidden;whiteSpace=wrap;html=1;fontSize=13;" parent="Atu7TQ1lVJbdkh35CZkr-31" vertex="1">
          <mxGeometry x="30" width="290" height="60" as="geometry">
            <mxRectangle width="290" height="60" as="alternateBounds" />
          </mxGeometry>
        </mxCell>
        <mxCell id="Atu7TQ1lVJbdkh35CZkr-34" value="" style="endArrow=none;html=1;rounded=0;exitX=0.531;exitY=0.998;exitDx=0;exitDy=0;exitPerimeter=0;entryX=0.531;entryY=-0.022;entryDx=0;entryDy=0;entryPerimeter=0;fontSize=13;" parent="Atu7TQ1lVJbdkh35CZkr-27" source="Atu7TQ1lVJbdkh35CZkr-31" target="Atu7TQ1lVJbdkh35CZkr-28" edge="1">
          <mxGeometry width="50" height="50" relative="1" as="geometry">
            <mxPoint x="169.67441860465115" y="160" as="sourcePoint" />
            <mxPoint x="171.16279069767444" y="30" as="targetPoint" />
          </mxGeometry>
        </mxCell>
        <mxCell id="Atu7TQ1lVJbdkh35CZkr-60" value="" style="fontSize=13;html=1;endArrow=ERmandOne;startArrow=ERmandOne;rounded=0;exitX=0.5;exitY=0;exitDx=0;exitDy=0;entryX=0.471;entryY=0.996;entryDx=0;entryDy=0;entryPerimeter=0;" parent="1" source="8-0DUaSqQJlFpMWTqGrt-115" target="Atu7TQ1lVJbdkh35CZkr-31" edge="1">
          <mxGeometry width="100" height="100" relative="1" as="geometry">
            <mxPoint x="333" y="636" as="sourcePoint" />
            <mxPoint x="433" y="536" as="targetPoint" />
          </mxGeometry>
        </mxCell>
        <mxCell id="Atu7TQ1lVJbdkh35CZkr-68" value="Student" style="whiteSpace=wrap;html=1;align=center;" parent="1" vertex="1">
          <mxGeometry x="460" y="220" width="100" height="40" as="geometry" />
        </mxCell>
        <mxCell id="Atu7TQ1lVJbdkh35CZkr-69" value="Educator" style="whiteSpace=wrap;html=1;align=center;" parent="1" vertex="1">
          <mxGeometry x="660" y="220" width="100" height="40" as="geometry" />
        </mxCell>
        <mxCell id="Atu7TQ1lVJbdkh35CZkr-70" style="edgeStyle=orthogonalEdgeStyle;rounded=0;orthogonalLoop=1;jettySize=auto;html=1;exitX=0.5;exitY=0;exitDx=0;exitDy=0;entryX=0.53;entryY=0.999;entryDx=0;entryDy=0;entryPerimeter=0;" parent="1" source="Atu7TQ1lVJbdkh35CZkr-69" target="klr1kLKZfkLogq7ZMNAk-71" edge="1">
          <mxGeometry relative="1" as="geometry" />
        </mxCell>
        <mxCell id="Atu7TQ1lVJbdkh35CZkr-71" style="edgeStyle=orthogonalEdgeStyle;rounded=0;orthogonalLoop=1;jettySize=auto;html=1;exitX=0.5;exitY=0;exitDx=0;exitDy=0;entryX=0.53;entryY=0.999;entryDx=0;entryDy=0;entryPerimeter=0;" parent="1" source="Atu7TQ1lVJbdkh35CZkr-68" target="klr1kLKZfkLogq7ZMNAk-71" edge="1">
          <mxGeometry relative="1" as="geometry" />
        </mxCell>
        <mxCell id="Atu7TQ1lVJbdkh35CZkr-72" value="" style="fontSize=13;html=1;endArrow=ERmandOne;startArrow=ERmandOne;rounded=0;exitX=0;exitY=0.5;exitDx=0;exitDy=0;entryX=0.75;entryY=0;entryDx=0;entryDy=0;edgeStyle=orthogonalEdgeStyle;" parent="1" source="Atu7TQ1lVJbdkh35CZkr-68" target="8-0DUaSqQJlFpMWTqGrt-102" edge="1">
          <mxGeometry width="100" height="100" relative="1" as="geometry">
            <mxPoint x="240" y="666" as="sourcePoint" />
            <mxPoint x="240" y="606" as="targetPoint" />
          </mxGeometry>
        </mxCell>
        <mxCell id="Atu7TQ1lVJbdkh35CZkr-73" value="" style="edgeStyle=orthogonalEdgeStyle;fontSize=12;html=1;endArrow=ERzeroToMany;startArrow=ERmandOne;rounded=0;exitX=0.5;exitY=1;exitDx=0;exitDy=0;entryX=1;entryY=0.5;entryDx=0;entryDy=0;" parent="1" source="Atu7TQ1lVJbdkh35CZkr-69" target="8-0DUaSqQJlFpMWTqGrt-116" edge="1">
          <mxGeometry width="100" height="100" relative="1" as="geometry">
            <mxPoint x="620" y="410" as="sourcePoint" />
            <mxPoint x="720" y="310" as="targetPoint" />
          </mxGeometry>
        </mxCell>
        <mxCell id="Atu7TQ1lVJbdkh35CZkr-74" value="" style="edgeStyle=orthogonalEdgeStyle;fontSize=12;html=1;endArrow=ERzeroToMany;endFill=1;startArrow=ERzeroToMany;rounded=0;exitX=0.5;exitY=1;exitDx=0;exitDy=0;entryX=0;entryY=0.5;entryDx=0;entryDy=0;" parent="1" source="Atu7TQ1lVJbdkh35CZkr-68" target="8-0DUaSqQJlFpMWTqGrt-161" edge="1">
          <mxGeometry width="100" height="100" relative="1" as="geometry">
            <mxPoint x="620" y="560" as="sourcePoint" />
            <mxPoint x="720" y="460" as="targetPoint" />
          </mxGeometry>
        </mxCell>
        <mxCell id="Atu7TQ1lVJbdkh35CZkr-75" value="" style="edgeStyle=orthogonalEdgeStyle;fontSize=12;html=1;endArrow=ERzeroToMany;endFill=1;startArrow=ERzeroToMany;rounded=0;entryX=0.991;entryY=0.994;entryDx=0;entryDy=0;entryPerimeter=0;" parent="1" target="Atu7TQ1lVJbdkh35CZkr-37" edge="1">
          <mxGeometry width="100" height="100" relative="1" as="geometry">
            <mxPoint x="486" y="260" as="sourcePoint" />
            <mxPoint x="405" y="565.9999999999998" as="targetPoint" />
            <Array as="points">
              <mxPoint x="486" y="566" />
            </Array>
          </mxGeometry>
        </mxCell>
        <mxCell id="Atu7TQ1lVJbdkh35CZkr-79" value="" style="edgeStyle=orthogonalEdgeStyle;fontSize=12;html=1;endArrow=ERzeroToMany;endFill=1;startArrow=ERzeroToMany;rounded=0;exitX=0.75;exitY=1;exitDx=0;exitDy=0;entryX=0;entryY=0.5;entryDx=0;entryDy=0;" parent="1" source="Atu7TQ1lVJbdkh35CZkr-68" target="Atu7TQ1lVJbdkh35CZkr-3" edge="1">
          <mxGeometry width="100" height="100" relative="1" as="geometry">
            <mxPoint x="520" y="270" as="sourcePoint" />
            <mxPoint x="818" y="494" as="targetPoint" />
            <Array as="points">
              <mxPoint x="535" y="758" />
            </Array>
          </mxGeometry>
        </mxCell>
      </root>
    </mxGraphModel>
  </diagram>
</mxfile>
